<?xml version="1.0" standalone="no"?>
<!DOCTYPE svg PUBLIC "-//W3C//DTD SVG 20010904//EN"
 "http://www.w3.org/TR/2001/REC-SVG-20010904/DTD/svg10.dtd">
<svg version="1.0" xmlns="http://www.w3.org/2000/svg"
 width="512.000000pt" height="512.000000pt" viewBox="0 0 512.000000 512.000000"
 preserveAspectRatio="xMidYMid meet">
<metadata>
Created by potrace 1.11, written by Peter Selinger 2001-2013
</metadata>
<g transform="translate(0.000000,512.000000) scale(0.100000,-0.100000)"
fill="#000000" stroke="none">
<path d="M2160 5095 c-93 -25 -269 -96 -312 -126 -14 -11 -30 -19 -35 -19 -25
0 -180 -120 -278 -215 -43 -42 -139 -155 -165 -194 -8 -13 -23 -34 -32 -46
-10 -13 -18 -28 -18 -34 0 -6 -3 -11 -7 -11 -5 0 -26 -36 -48 -80 -22 -44 -44
-80 -49 -80 -5 0 -36 13 -70 29 -55 26 -198 78 -236 86 -8 1 -35 8 -60 15 -25
7 -54 14 -65 16 -11 2 -31 6 -45 10 -14 3 -45 7 -68 9 l-44 3 5 -36 c3 -20 8
-48 12 -62 3 -14 8 -34 10 -46 3 -12 11 -40 19 -63 9 -22 13 -41 10 -41 -2 0
3 -17 11 -37 9 -21 16 -40 16 -43 0 -3 4 -23 10 -45 6 -22 13 -51 15 -63 3
-13 11 -42 18 -63 l14 -40 -62 -62 c-34 -34 -88 -96 -121 -137 -32 -41 -64
-78 -69 -82 -6 -4 -7 -8 -3 -8 4 0 -6 -13 -23 -30 -16 -16 -30 -34 -30 -40 0
-5 -7 -10 -17 -10 -9 0 -14 -3 -10 -6 3 -3 1 -12 -6 -18 -9 -10 -15 -9 -31 6
-17 16 -28 19 -51 18 -3 -1 -13 6 -22 15 -8 9 -22 14 -30 11 -8 -3 -11 -1 -8
4 3 6 1 11 -4 11 -6 1 -17 2 -23 3 -7 1 -12 7 -10 14 1 7 -7 12 -19 12 -15 0
-19 4 -15 16 5 14 4 15 -9 4 -12 -10 -18 -10 -30 0 -8 7 -15 9 -15 5 0 -4 -7
-2 -15 5 -8 6 -20 8 -26 4 -8 -5 -9 -3 -4 6 6 10 4 12 -8 7 -13 -5 -17 -1 -17
16 0 18 -2 19 -10 7 -8 -13 -10 -12 -10 3 0 10 -5 15 -10 12 -6 -4 -8 -10 -5
-15 3 -5 1 -11 -4 -14 -6 -4 -8 8 -5 28 3 25 0 36 -12 40 -14 5 -15 4 -5 -8
15 -18 6 -37 -13 -30 -10 4 -13 -24 -14 -140 -1 -80 3 -148 8 -151 5 -3 25 -6
45 -7 23 -1 31 -4 23 -9 -12 -8 -6 -11 18 -8 3 0 12 -8 21 -18 8 -10 12 -13 9
-6 -4 6 -1 15 6 19 7 4 10 4 6 -1 -4 -4 0 -14 10 -22 9 -8 11 -11 3 -7 -9 4
-12 3 -8 -4 4 -5 16 -8 27 -5 12 3 20 0 20 -7 0 -10 3 -10 15 0 12 10 16 9 21
-3 3 -9 14 -14 25 -12 11 2 17 0 14 -6 -4 -5 -10 -7 -14 -5 -4 3 -13 1 -21 -4
-10 -6 -3 -8 23 -6 34 4 37 2 32 -18 -4 -13 -3 -17 2 -8 11 14 62 12 60 -3 -1
-5 8 -9 20 -9 13 1 20 -3 17 -7 -3 -5 -12 -9 -20 -9 -8 0 -14 -4 -14 -10 0 -6
11 -5 27 3 21 9 27 9 31 -1 2 -6 11 -12 19 -12 9 0 22 -8 29 -17 8 -11 13 -13
14 -5 0 6 4 12 10 12 5 0 7 -7 4 -15 -4 -10 0 -15 11 -15 9 0 13 -4 10 -10 -3
-5 -1 -10 4 -10 6 0 11 6 11 13 0 6 6 1 13 -13 8 -16 20 -24 33 -22 13 2 25
-6 34 -23 7 -14 15 -23 18 -20 3 2 -1 12 -9 21 -7 9 8 2 35 -15 27 -16 54 -28
60 -24 6 3 8 3 4 -2 -4 -4 -3 -14 3 -22 8 -9 8 -13 1 -13 -6 0 -15 7 -20 16
-8 15 -10 15 -15 0 -4 -10 -3 -14 2 -11 5 3 13 0 18 -7 11 -19 15 -61 5 -54
-5 3 -9 -1 -9 -9 0 -8 5 -15 11 -16 6 0 2 -4 -9 -9 l-20 -9 20 0 c11 -1 16 -5
10 -9 -5 -4 -10 -13 -11 -19 -1 -7 -2 -25 -2 -39 -2 -17 -6 -23 -14 -18 -10 5
-10 4 -2 -5 14 -15 7 -51 -10 -51 -6 0 -4 -5 4 -10 13 -8 12 -10 -2 -10 -10 0
-18 6 -18 13 0 8 -4 7 -10 -3 -7 -11 -10 -11 -10 -2 0 7 -4 10 -10 7 -6 -4 -7
1 -3 11 4 11 3 15 -4 11 -16 -10 -44 3 -36 16 4 6 0 8 -10 4 -14 -5 -16 -2
-12 21 l5 27 -11 -25 c-11 -24 -11 -24 -19 -5 -12 29 -12 37 2 29 6 -4 8 -3 5
4 -8 12 -25 11 -46 -3 -10 -5 -16 -4 -19 3 -2 7 -12 12 -23 12 -10 0 -19 4
-19 9 0 8 -32 24 -51 26 -3 0 -13 8 -23 18 -10 9 -22 15 -27 12 -5 -4 -9 -1
-9 5 0 7 -7 10 -14 7 -10 -4 -13 -1 -9 9 4 11 -1 14 -21 10 -25 -4 -32 11 -13
25 5 3 1 9 -8 12 -9 4 -14 3 -11 -2 3 -5 -1 -12 -10 -15 -22 -9 -24 -8 -24 9
0 14 -12 19 -32 16 -8 -1 -11 12 -9 39 0 10 -1 11 -5 2 -3 -6 -11 -9 -17 -5
-7 4 -7 1 1 -9 11 -13 11 -18 0 -24 -7 -4 -10 -4 -6 1 4 4 0 14 -8 22 -8 8
-12 19 -9 24 4 5 1 9 -5 9 -7 0 -10 -7 -7 -15 4 -8 1 -17 -5 -21 -7 -4 -8 -3
-4 4 6 11 -6 16 -26 13 -5 0 -8 4 -8 10 0 5 -4 8 -9 4 -5 -3 -16 1 -24 9 -8 8
-18 12 -21 8 -4 -3 -4 1 0 11 3 9 2 17 -4 17 -6 0 -10 -108 -10 -307 1 -261 3
-304 14 -288 16 22 19 12 4 -14 -7 -14 -4 -24 11 -40 11 -12 24 -19 29 -16 4
3 7 -2 6 -11 -1 -8 -8 -19 -15 -24 -9 -5 -10 -10 -2 -14 6 -4 11 -2 11 4 0 7
6 10 13 7 6 -2 11 -12 9 -22 -2 -11 1 -14 9 -9 9 5 11 1 6 -15 -4 -17 0 -24
16 -30 12 -5 26 -6 31 -3 5 3 6 0 2 -6 -4 -6 -14 -9 -24 -6 -9 2 -7 -1 5 -7
27 -14 31 -32 6 -22 -12 5 -11 1 5 -15 12 -12 26 -22 32 -22 5 0 7 -7 4 -15
-4 -8 -9 -13 -13 -10 -4 2 -8 -2 -8 -10 0 -12 4 -12 20 2 11 10 17 12 13 5 -4
-6 -3 -12 2 -12 21 0 22 -33 2 -47 -11 -8 -20 -19 -20 -25 0 -7 6 -4 13 7 9
11 19 15 27 10 9 -5 11 -4 6 3 -4 7 -3 12 2 12 13 0 22 -24 13 -38 -12 -19
-55 -29 -117 -27 -60 2 -111 23 -96 40 4 5 1 5 -6 1 -19 -11 -15 -665 4 -673
8 -3 11 -10 7 -16 -4 -7 0 -8 11 -4 14 6 17 3 12 -8 -3 -9 -2 -13 3 -10 5 3
12 1 15 -4 3 -5 15 -7 26 -4 12 3 20 0 20 -6 0 -7 4 -10 9 -6 5 3 17 -2 26
-12 14 -14 18 -14 26 -2 5 8 9 9 9 3 0 -5 7 -19 15 -30 11 -14 14 -15 9 -3 -3
10 0 20 6 24 6 3 9 1 8 -5 -2 -7 7 -16 20 -21 14 -5 21 -5 17 0 -3 5 0 13 6
17 8 4 9 3 5 -4 -7 -12 1 -14 52 -15 14 -1 21 -6 18 -14 -3 -7 -1 -13 4 -13 6
0 10 5 10 11 0 8 5 8 15 -1 8 -7 15 -9 15 -6 0 4 9 2 21 -4 12 -7 18 -18 15
-26 -3 -9 -1 -12 4 -9 9 5 12 -1 9 -21 0 -4 4 -10 10 -13 25 -16 15 -151 -12
-151 -4 0 -6 -4 -3 -8 6 -11 -102 -64 -115 -57 -5 4 -9 2 -9 -3 0 -14 26 -18
93 -18 31 1 57 0 57 -1 0 -11 -66 -93 -75 -93 -6 0 -23 10 -38 22 -16 13 -40
23 -55 24 -15 1 -54 5 -87 9 -33 4 -67 8 -75 9 -9 1 -21 6 -29 10 -11 7 -11
10 0 17 9 5 14 42 16 126 1 65 5 130 7 146 3 15 2 27 -3 27 -5 0 -11 9 -14 20
-4 15 -14 20 -39 20 -25 0 -29 3 -18 10 9 6 10 10 3 10 -6 0 -15 -5 -19 -11
-4 -8 -9 -7 -15 2 -5 8 -9 -173 -9 -418 0 -426 0 -433 20 -433 11 0 20 -4 20
-8 0 -5 -9 -17 -20 -27 -19 -17 -20 -31 -20 -265 0 -136 3 -249 6 -252 7 -7
93 29 115 48 9 8 18 11 21 8 4 -3 21 3 40 13 18 10 38 18 44 18 6 0 20 7 30
15 16 13 17 13 9 0 -6 -10 -2 -9 12 3 12 10 27 19 35 21 7 1 19 5 26 10 8 5
19 3 25 -4 9 -9 8 -14 -5 -24 -10 -7 -15 -16 -11 -19 3 -4 1 -13 -5 -20 -7 -8
-9 -17 -5 -20 3 -4 1 -7 -6 -7 -7 0 -9 -5 -5 -12 5 -8 2 -9 -11 -4 -15 5 -16
4 -5 -9 9 -11 9 -15 1 -15 -7 0 -9 -5 -6 -10 10 -16 715 -12 734 3 12 10 13 9
7 -1 -6 -11 -1 -13 25 -11 19 2 40 8 48 13 11 8 13 8 8 0 -3 -6 1 -11 9 -11 8
0 13 6 10 13 -3 8 0 16 6 20 6 4 8 3 5 -3 -4 -6 -1 -16 7 -22 11 -9 12 -6 8
14 -2 14 -1 25 4 24 5 -1 12 0 17 1 12 4 26 7 38 9 5 0 7 7 3 14 -4 6 -3 9 1
4 5 -4 20 3 34 15 18 16 21 17 11 4 -8 -11 -14 -22 -13 -25 0 -3 -3 -5 -8 -4
-14 4 -11 -15 4 -20 10 -4 9 -6 0 -6 -7 -1 -13 -8 -13 -17 0 -9 -5 -12 -12 -8
-7 4 -8 3 -4 -4 11 -18 585 -17 591 1 2 6 7 30 10 52 14 98 22 140 25 140 1 0
3 12 5 26 2 14 8 43 14 65 5 21 12 50 15 64 3 14 10 45 17 70 6 25 13 56 15
70 3 14 10 43 16 65 13 46 12 39 23 85 4 19 9 44 10 55 2 11 9 36 17 55 l15
35 15 -30 c15 -31 12 -59 -11 -103 -6 -12 -8 -22 -3 -22 9 0 29 -37 30 -54 0
-5 4 -12 9 -15 5 -3 15 -26 22 -51 7 -25 23 -72 36 -105 13 -33 37 -98 55
-145 18 -47 37 -96 43 -110 6 -14 11 -32 11 -40 1 -8 4 -19 7 -25 8 -13 23
-78 21 -88 -1 -4 439 -7 978 -7 974 0 980 0 970 20 -8 15 -8 20 2 20 9 0 9 3
-2 10 -9 5 -19 5 -27 -2 -8 -6 -7 1 3 21 9 18 20 28 26 25 7 -4 8 -2 4 5 -6 8
-12 9 -20 2 -15 -13 -26 -4 -26 21 0 10 -7 21 -16 25 -8 3 -13 12 -10 19 3 8
1 14 -5 14 -6 0 -9 8 -7 17 2 10 8 18 14 18 6 0 18 8 28 17 10 10 12 18 6 18
-6 0 -13 -7 -16 -15 -4 -8 -10 -13 -14 -10 -5 3 -11 1 -15 -5 -9 -14 -22 -12
-28 4 -3 8 1 13 10 12 9 0 17 5 19 12 1 7 0 8 -2 3 -3 -5 -14 -6 -26 -3 -20 5
-20 5 3 18 l24 13 -32 7 c-26 5 -33 11 -33 31 0 13 -4 22 -8 19 -5 -3 -15 6
-23 20 -12 23 -11 27 6 40 10 8 14 14 9 14 -6 0 -15 -5 -22 -12 -9 -9 -11 -4
-7 20 2 18 0 30 -5 27 -4 -2 -15 10 -24 28 -9 19 -16 25 -16 15 0 -10 -7 -18
-16 -18 -13 0 -14 3 -4 15 6 8 8 20 4 26 -5 9 -2 10 9 6 10 -3 17 -2 17 4 0 6
-8 9 -17 8 -34 -3 -44 1 -37 14 5 7 0 6 -11 -3 -17 -14 -18 -13 -12 3 5 12 -1
26 -19 43 -20 21 -23 29 -13 40 10 12 9 13 -4 8 -10 -3 -20 2 -26 15 -9 16 -8
22 6 31 17 10 17 10 -1 8 -14 -2 -21 5 -27 25 -4 16 -5 35 -3 42 3 7 0 16 -6
20 -9 6 -9 9 1 15 9 6 10 12 2 22 -6 7 -10 20 -11 28 0 8 -3 49 -7 90 -15 172
-16 164 34 216 25 26 39 44 31 40 -12 -6 -12 -5 0 6 9 7 22 29 30 48 18 49 25
54 28 23 1 -15 5 -29 10 -32 4 -3 8 -13 10 -21 3 -14 102 -118 102 -107 0 4
-8 21 -19 40 -21 38 -27 147 -7 147 6 0 4 5 -4 10 -12 7 -12 10 -1 10 7 0 11
6 8 15 -4 8 -2 17 4 21 6 3 8 12 5 19 -19 50 115 -63 137 -115 35 -84 29 -182
-15 -243 -18 -26 -51 -46 -86 -53 -29 -6 -20 -11 18 -11 22 0 40 3 40 7 0 4 7
7 15 8 8 1 22 3 30 4 8 1 15 5 15 10 0 4 6 8 13 9 20 1 98 61 130 101 16 21
30 50 31 66 1 16 7 29 14 29 6 0 12 -4 12 -8 0 -4 14 -22 31 -40 l32 -34 -18
-65 c-9 -36 -20 -76 -23 -90 -4 -14 -6 -86 -6 -161 0 -105 3 -141 14 -155 13
-16 13 -17 0 -9 -12 7 -13 6 -3 -6 6 -8 13 -23 15 -34 1 -11 9 -26 16 -34 10
-10 10 -16 1 -27 -9 -12 -9 -13 2 -9 10 4 15 -2 16 -17 1 -13 7 -24 13 -26 5
-2 10 -10 10 -18 0 -8 6 -14 13 -14 8 0 7 -4 -3 -10 -13 -8 -12 -10 3 -10 10
0 20 -8 24 -18 3 -9 13 -25 20 -34 8 -9 12 -21 8 -27 -3 -7 0 -8 9 -5 10 4 18
-1 23 -12 11 -31 74 -82 138 -114 60 -30 69 -33 140 -44 22 -4 45 -15 53 -27
46 -66 89 -99 150 -113 33 -8 63 -11 66 -8 3 3 6 262 6 576 l0 570 -57 54
c-46 42 -137 99 -150 94 -2 -1 -21 5 -43 13 -22 8 -40 12 -40 10 0 -2 -13 0
-30 5 -16 5 -32 5 -34 2 -2 -4 -20 -7 -40 -6 -20 1 -36 -3 -36 -8 0 -6 -7 -8
-15 -4 -8 3 -15 1 -15 -5 0 -6 -6 -9 -14 -6 -8 3 -17 -1 -20 -10 -4 -9 -9 -13
-12 -10 -4 3 -12 1 -20 -6 -35 -31 -43 -36 -48 -28 -7 10 16 61 27 61 5 0 6 4
3 9 -3 5 1 12 10 15 8 3 13 10 10 15 -3 5 1 12 10 15 9 3 12 11 8 18 -4 7 -4
10 0 6 5 -4 18 5 31 20 20 24 24 25 40 12 17 -14 17 -13 5 10 -12 23 -12 24 3
11 14 -11 17 -11 17 0 0 12 2 12 9 0 7 -11 9 -11 14 0 3 9 6 7 6 -6 1 -16 3
-17 10 -5 6 8 7 18 4 23 -3 5 4 6 17 2 15 -5 20 -4 16 4 -5 7 -1 9 8 5 9 -3
16 -1 16 5 0 6 5 11 11 11 5 0 7 -6 3 -13 -4 -6 -4 -9 1 -5 4 4 15 2 23 -5 11
-8 9 -2 -4 18 -16 26 -16 28 -1 16 10 -8 17 -9 17 -3 0 6 10 16 23 22 21 11
21 10 3 -4 -11 -9 -15 -16 -9 -16 14 0 43 28 43 40 0 5 7 7 15 4 8 -4 17 1 21
10 3 9 12 16 20 16 8 0 14 7 14 15 0 13 4 14 23 4 21 -12 21 -11 7 7 -15 18
-14 18 15 0 17 -10 25 -13 18 -6 -14 15 -6 43 10 33 6 -3 7 -1 3 5 -4 7 -2 12
4 12 6 0 9 4 6 9 -3 5 0 14 7 20 10 8 14 7 14 -4 0 -8 -5 -11 -11 -8 -6 4 -5
-1 3 -10 7 -9 14 -17 15 -17 3 0 5 33 12 154 4 88 3 107 -8 100 -10 -6 -11 -5
-1 8 10 11 13 80 11 271 0 141 -4 255 -8 252 -3 -2 -5 -18 -4 -35 1 -22 -2
-30 -11 -26 -20 7 -25 -3 -15 -30 8 -19 6 -24 -6 -24 -8 0 -13 4 -10 8 2 4 0
14 -6 22 -8 12 -9 11 -4 -4 5 -15 2 -17 -13 -13 -14 3 -18 1 -14 -9 3 -8 9
-11 14 -8 5 3 14 2 19 -1 6 -4 -1 -19 -17 -36 -16 -16 -29 -34 -29 -39 -1 -6
-2 -14 -3 -18 0 -5 -11 -14 -23 -21 -13 -6 -16 -10 -7 -7 9 2 16 -2 16 -9 0
-8 -9 -12 -26 -9 -22 3 -23 2 -8 -6 19 -12 23 -30 6 -30 -5 0 -8 4 -5 8 3 5
-1 9 -9 9 -10 0 -11 -5 -4 -19 7 -14 6 -18 -5 -18 -8 0 -18 -5 -22 -12 -4 -7
-3 -8 4 -4 15 9 15 1 1 -25 -10 -20 -11 -20 -32 -2 -14 13 -18 14 -13 3 6 -11
4 -11 -6 1 -7 9 -23 19 -36 23 -12 4 -22 14 -22 22 0 8 -5 12 -10 9 -6 -3 -13
1 -16 9 -3 9 -10 13 -15 10 -5 -3 -9 2 -9 10 0 9 -4 16 -10 16 -5 0 -10 7 -10
15 0 8 -3 14 -8 12 -12 -4 -15 7 -8 31 7 21 26 22 26 1 0 -6 -5 -7 -12 -3 -7
4 -8 3 -4 -4 14 -23 28 -12 21 16 -5 23 -1 31 20 42 27 15 31 25 13 36 -6 4
-8 3 -5 -3 4 -6 0 -16 -7 -22 -10 -9 -16 -9 -21 -1 -4 6 -1 9 7 8 7 -2 12 3
11 9 -2 7 6 18 16 25 11 6 17 18 13 26 -3 10 -1 13 6 8 7 -4 12 -1 12 9 0 9 7
27 16 40 9 14 13 25 8 25 -4 0 1 6 12 14 14 11 21 11 26 3 6 -9 8 -9 8 0 0 7
-8 17 -17 22 -17 10 -17 10 0 11 10 0 16 4 12 9 -3 5 -1 12 5 16 6 4 8 10 5
15 -3 4 2 13 10 20 8 7 12 16 9 21 -3 5 1 6 9 3 8 -3 18 0 23 7 4 7 3 10 -4 5
-6 -3 -14 -2 -17 4 -4 6 -1 9 7 8 7 -2 12 3 11 10 -2 6 2 12 7 12 6 0 10 5 10
11 0 5 -5 7 -12 3 -7 -4 -8 -3 -4 5 6 9 11 9 22 0 12 -10 13 -8 8 7 -6 16 -5
17 7 7 7 -7 17 -13 22 -13 5 0 -1 9 -14 21 -20 17 -21 20 -5 15 17 -6 17 -5 5
11 -12 15 -12 16 4 10 10 -4 16 -3 12 2 -3 5 -2 11 2 14 5 2 3 2 -4 1 -7 -2
-15 2 -19 8 -4 6 -3 8 3 5 5 -4 16 4 23 17 7 13 22 29 34 35 20 11 20 11 -4 6
-22 -5 -23 -4 -9 7 9 7 14 18 12 24 -2 7 3 19 12 28 9 9 13 16 9 16 -3 0 -1 6
5 13 6 8 8 17 4 20 -3 4 -1 7 5 7 6 0 10 -9 9 -19 0 -11 -5 -17 -11 -14 -5 4
-6 1 -2 -6 10 -15 19 -7 23 21 2 12 -2 25 -9 30 -9 5 -7 8 7 8 17 0 17 2 5 10
-8 5 -10 10 -4 10 7 0 11 43 12 131 2 130 -3 163 -18 138 -5 -6 -25 -14 -47
-16 -21 -2 -44 -4 -50 -5 -7 -1 -13 -4 -13 -8 0 -3 6 -12 13 -20 6 -8 3 -7 -8
2 -17 14 -22 14 -33 2 -7 -8 -18 -14 -24 -14 -6 0 -1 12 13 27 l24 27 -31 -25
c-17 -13 -29 -27 -27 -31 2 -5 -1 -8 -7 -8 -6 0 -8 -5 -4 -12 4 -7 3 -8 -5 -4
-6 4 -9 13 -5 19 3 7 -4 1 -15 -13 -11 -14 -21 -21 -21 -17 0 4 -10 3 -21 -4
-15 -7 -19 -8 -15 0 4 6 1 9 -7 5 -8 -3 -14 -13 -13 -22 0 -10 -5 -16 -13 -14
-7 1 -19 -5 -27 -15 -7 -10 -14 -13 -14 -7 0 5 5 15 12 22 8 8 8 12 1 12 -6 0
-14 -7 -17 -16 -3 -8 -9 -13 -14 -11 -4 3 -16 -1 -27 -9 -10 -8 -14 -14 -9
-14 6 0 15 5 22 12 9 9 12 9 12 0 0 -6 -11 -14 -25 -18 -14 -3 -25 -11 -25
-18 0 -6 -5 -4 -10 4 -8 13 -11 13 -22 1 -10 -10 -10 -12 0 -7 6 4 12 2 12 -3
0 -6 -7 -11 -15 -11 -8 0 -15 -5 -15 -12 0 -9 -3 -9 -12 0 -7 7 -17 12 -22 12
-6 0 -4 -5 4 -10 13 -8 13 -11 1 -22 -8 -7 -11 -8 -9 -3 3 6 -1 16 -8 23 -13
12 -14 10 -9 -10 5 -19 1 -27 -19 -36 -19 -8 -26 -8 -30 1 -3 7 -5 6 -5 -3 -1
-9 -15 -24 -32 -34 -23 -14 -30 -15 -27 -5 3 8 9 14 14 14 18 0 34 16 33 33 0
14 -2 14 -8 -2 -4 -11 -15 -20 -25 -22 -12 -2 -16 2 -12 12 3 8 0 14 -6 14 -6
0 -5 6 3 17 8 9 9 14 3 10 -7 -4 -15 0 -18 9 -3 8 -2 13 3 10 5 -3 11 1 14 9
4 8 1 12 -6 9 -15 -5 -17 57 -2 68 6 5 5 8 -3 8 -9 0 -11 7 -7 21 4 13 3 19
-2 16 -11 -7 -9 54 1 72 5 8 13 8 29 -1 19 -10 20 -9 10 4 -13 15 -8 28 11 28
6 0 5 -4 -2 -9 -11 -7 -11 -9 2 -14 9 -4 15 -3 15 1 -1 4 -1 16 0 27 1 17 3
18 11 5 9 -13 10 -13 11 0 1 8 1 19 0 23 -1 5 3 6 8 3 14 -9 61 15 61 31 0 8
4 12 10 8 5 -3 6 -13 3 -22 -4 -11 -3 -14 5 -9 7 4 12 14 12 22 0 20 17 18 24
-3 3 -10 4 -6 2 10 -2 15 1 27 5 27 5 0 9 -6 9 -12 0 -9 3 -9 9 1 5 8 16 11
26 8 9 -4 13 -12 9 -18 -5 -8 -3 -9 5 -5 9 6 8 13 -6 28 -9 11 -13 18 -8 17
18 -4 45 13 38 24 -4 6 -1 7 7 2 7 -4 16 -2 22 6 8 11 9 10 4 -3 -3 -10 0 -20
6 -24 7 -4 8 -3 4 4 -4 7 -2 12 4 12 6 0 8 5 5 10 -3 6 1 10 10 10 9 0 13 -4
10 -10 -3 -5 -1 -10 4 -10 15 0 14 13 -1 29 -11 11 -9 11 9 2 19 -10 22 -9 17
4 -5 11 -2 14 12 8 12 -4 15 -3 10 6 -4 6 -4 10 1 9 4 -1 18 2 31 6 32 11 39
0 17 -24 -21 -24 -14 -27 10 -4 9 9 13 24 10 34 -5 15 -2 17 15 13 12 -3 20 0
20 7 0 7 8 10 20 7 10 -3 18 0 17 5 -1 6 4 13 12 16 9 3 11 0 6 -8 -5 -8 -4
-11 3 -6 5 3 13 0 16 -6 3 -7 2 0 -1 17 -6 28 -6 29 11 12 10 -9 22 -17 29
-17 6 0 2 7 -9 15 -15 11 -16 14 -3 15 8 0 20 -4 27 -10 9 -7 9 -7 2 2 -15 18
-12 32 4 19 12 -10 14 13 14 149 0 89 -3 158 -7 155 -3 -4 -7 -11 -7 -16 -3
-22 -5 -23 -14 -9 -7 12 -11 10 -19 -10 -8 -22 -10 -22 -11 -5 -1 11 -4 14 -7
7 -2 -6 -10 -9 -16 -5 -6 4 -8 0 -4 -10 5 -13 2 -15 -18 -7 -22 8 -23 7 -19
-18 3 -17 1 -22 -4 -14 -6 8 -20 11 -40 7 -27 -4 -30 -3 -27 15 2 11 0 18 -5
15 -9 -6 -8 -24 3 -41 8 -14 -8 -21 -48 -20 -19 1 -29 6 -27 14 1 8 -2 11 -8
7 -8 -5 -5 -14 7 -27 18 -20 18 -21 -4 -9 -31 16 -40 14 -17 -5 18 -15 18 -15
-4 -9 -12 4 -21 3 -20 -2 2 -4 -1 -9 -6 -10 -5 -1 -13 -7 -18 -15 -7 -9 -8 -7
-3 7 12 33 14 66 4 59 -5 -3 -7 -9 -4 -14 3 -4 2 -16 -1 -25 -6 -13 -9 -14
-16 -3 -6 9 -7 6 -3 -9 3 -13 2 -23 -2 -23 -5 0 -19 -9 -30 -20 -29 -26 -40 0
-13 32 11 13 19 18 20 13 0 -6 -4 -16 -10 -23 -6 -8 -4 -7 5 1 11 9 12 20 6
42 -5 17 -10 26 -10 22 -1 -4 -12 2 -25 15 -50 48 -84 77 -173 146 -51 40 -97
72 -102 72 -5 0 -15 7 -22 16 -7 9 -24 20 -37 25 -13 5 -21 13 -17 18 5 9 12
47 20 106 2 17 4 30 5 30 2 0 4 9 5 20 2 11 6 34 9 50 3 17 8 45 11 63 3 17 8
49 11 70 3 20 7 57 9 81 3 24 7 52 10 62 4 11 2 19 -4 19 -6 0 -8 7 -5 15 8
20 9 20 -103 -17 -54 -17 -100 -32 -103 -33 -3 0 -31 -13 -64 -28 -32 -15 -62
-27 -67 -27 -5 0 -9 -4 -9 -9 0 -5 -13 -14 -28 -20 -15 -7 -40 -23 -54 -36
-24 -22 -27 -23 -41 -7 -8 9 -27 41 -42 70 -16 28 -32 52 -37 52 -5 0 -6 5 -3
10 3 6 2 10 -3 10 -5 0 -15 12 -23 28 -8 15 -16 29 -19 32 -3 3 -29 34 -59 70
-106 127 -306 310 -338 310 -7 0 -13 5 -13 10 0 6 -7 10 -15 10 -8 0 -15 4
-15 8 0 5 -16 14 -35 22 -19 8 -35 17 -35 21 0 7 -39 22 -52 20 -5 -1 -8 4 -8
9 0 6 -8 10 -18 10 -10 0 -22 3 -26 8 -4 4 -11 7 -14 8 -4 0 -20 7 -37 14 -16
8 -34 15 -40 16 -5 1 -13 3 -17 4 -5 1 -11 3 -15 4 -5 1 -13 4 -19 8 -6 4 -26
10 -45 13 -19 3 -49 10 -68 15 -19 5 -186 9 -370 9 -317 -1 -341 -2 -421 -24z
m2694 -1453 c3 -5 -1 -9 -9 -9 -8 0 -12 4 -9 9 3 4 7 8 9 8 2 0 6 -4 9 -8z
m-4529 -242 c3 -5 1 -10 -4 -10 -6 0 -11 5 -11 10 0 6 2 10 4 10 3 0 8 -4 11
-10z m4405 -24 c0 -2 -8 -10 -17 -17 -16 -13 -17 -12 -4 4 13 16 21 21 21 13z
m-195 -16 c-3 -5 -12 -10 -18 -10 -7 0 -6 4 3 10 19 12 23 12 15 0z m-3971
-201 c-3 -5 -10 -7 -15 -3 -5 3 -7 10 -3 15 3 5 10 7 15 3 5 -3 7 -10 3 -15z
m-51 -273 c4 -10 0 -14 -13 -13 -14 1 -16 4 -8 14 13 16 15 16 21 -1z m-347
-81 c-1 -8 -5 -17 -8 -21 -5 -4 -4 16 1 34 3 9 9 -1 7 -13z m4479 -154 c3 -5
2 -12 -3 -15 -5 -3 -9 1 -9 9 0 17 3 19 12 6z m-4595 -127 c0 -8 -19 -13 -24
-6 -3 5 1 9 9 9 8 0 15 -2 15 -3z m2107 -170 c60 -56 98 -82 173 -123 25 -13
48 -29 52 -34 7 -11 -22 -38 -33 -31 -10 6 -75 -23 -93 -42 -20 -20 -34 -10
-79 55 -30 45 -41 59 -63 84 -14 17 -55 103 -58 124 -2 9 4 25 12 34 15 17 17
16 37 -10 11 -16 35 -42 52 -57z m2646 11 c-3 -9 -8 -14 -10 -11 -3 3 -2 9 2
15 9 16 15 13 8 -4z m-4636 -50 c0 -8 -4 -12 -9 -9 -5 3 -6 10 -3 15 9 13 12
11 12 -6z m3043 -87 c1 -149 3 -178 9 -178 12 0 6 -76 -8 -112 -17 -42 -37
-53 -73 -39 -23 9 -58 41 -44 41 4 0 1 6 -6 14 -7 7 -19 11 -25 9 -7 -3 -13
-1 -14 3 0 5 -2 19 -3 32 -2 12 1 22 5 22 4 0 6 8 5 18 -2 9 0 29 5 44 5 17 3
30 -4 36 -15 12 -66 26 -90 25 -16 0 -16 2 4 23 12 13 27 24 32 24 12 0 142
87 175 117 14 12 26 23 28 23 2 0 3 -46 4 -102z m1840 -2 c0 -3 -4 -8 -10 -11
-5 -3 -10 -1 -10 4 0 6 5 11 10 11 6 0 10 -2 10 -4z m-769 -43 c1 -9 6 -33 10
-52 2 -7 -2 -16 -8 -18 -7 -3 -13 1 -14 9 0 7 -2 25 -3 41 -1 15 2 27 6 27 4
0 8 -3 9 -7z m23 -94 c-3 -5 0 -16 6 -24 15 -18 -1 -20 -20 -2 -8 6 -6 2 5
-11 23 -28 28 -65 8 -58 -8 3 -11 1 -8 -4 7 -12 -3 -50 -14 -50 -3 0 -7 9 -7
19 0 11 4 17 9 14 4 -2 5 8 1 23 -5 19 -4 25 5 20 6 -4 11 -2 11 3 0 6 -6 11
-13 11 -15 0 -17 61 -2 72 12 9 27 -1 19 -13z m-4099 -137 c-13 -9 -65 -79
-62 -83 1 -2 -7 7 -18 20 -10 14 -20 34 -22 45 -1 12 1 15 3 8 3 -6 10 -10 15
-6 5 3 22 8 37 10 15 3 31 9 36 14 5 6 12 7 15 4 3 -3 1 -8 -4 -12z m4855
-308 c0 -8 -19 -13 -24 -6 -3 5 1 9 9 9 8 0 15 -2 15 -3z m-4980 -164 c0 -5
-2 -10 -4 -10 -3 0 -8 5 -11 10 -3 6 -1 10 4 10 6 0 11 -4 11 -10z m1097 -157
c15 -14 17 -27 3 -18 -5 3 -10 1 -10 -5 0 -7 8 -9 20 -5 11 3 20 3 20 -2 0 -4
14 -24 30 -43 16 -19 30 -40 30 -47 0 -6 4 -13 10 -15 5 -1 11 -12 13 -23 1
-11 5 -24 8 -30 7 -13 6 -39 -3 -45 -3 -3 -24 12 -47 33 -22 20 -45 37 -51 37
-5 0 -10 4 -10 9 0 5 -13 14 -30 21 -17 7 -27 17 -23 23 10 16 10 87 0 87 -5
0 -5 5 -2 10 4 6 12 7 18 3 7 -4 6 0 -2 10 -7 9 -16 15 -20 13 -4 -3 -7 4 -7
14 0 20 4 18 53 -27z m-387 27 c0 -6 9 -20 20 -32 31 -34 26 -55 -15 -60 -42
-5 -47 -1 -35 22 5 10 11 32 12 49 2 28 18 46 18 21z m674 -102 c-4 -6 -3 -8
3 -5 14 9 24 -16 14 -32 -5 -7 -7 -28 -6 -47 1 -22 -3 -34 -11 -34 -13 0 -12
29 1 50 3 6 1 10 -4 10 -6 0 -11 16 -11 35 0 19 -4 35 -8 35 -4 0 -8 9 -8 20
0 19 0 19 19 -1 10 -10 15 -24 11 -31z m1 -230 c-3 -57 -10 -121 -15 -143 -7
-37 -8 -38 -16 -15 -8 25 -48 105 -75 148 -13 21 -12 25 6 40 12 9 24 25 28
35 9 23 33 22 33 -3 0 -11 -3 -20 -7 -20 -4 0 -5 -9 -2 -20 3 -11 1 -20 -4
-20 -5 0 -10 -6 -10 -12 0 -7 -4 -22 -9 -32 -12 -31 14 -10 32 26 16 31 26 68
28 101 0 9 4 17 9 17 5 0 6 -46 2 -102z m2470 -509 c11 -16 1 -19 -13 -3 -7 8
-8 14 -3 14 5 0 13 -5 16 -11z m65 -91 c0 -3 -7 -5 -15 -5 -8 0 -11 5 -8 10 4
7 -1 8 -12 3 -15 -5 -16 -4 -5 9 10 12 9 15 -6 15 -15 0 -16 2 -5 9 10 7 20 2
33 -14 10 -13 18 -25 18 -27z m-2590 36 c0 -8 -19 -13 -24 -6 -3 5 1 9 9 9 8
0 15 -2 15 -3z m2677 -180 c-3 -3 -12 -4 -19 -1 -8 3 -5 6 6 6 11 1 17 -2 13
-5z m-77 -34 c0 -5 -2 -10 -4 -10 -3 0 -8 5 -11 10 -3 6 -1 10 4 10 6 0 11 -4
11 -10z"/>
<path d="M130 1926 c0 -2 7 -7 16 -10 8 -3 12 -2 9 4 -6 10 -25 14 -25 6z"/>
<path d="M122 1904 c10 -10 20 -16 22 -13 3 3 -5 11 -17 18 -21 13 -21 12 -5
-5z"/>
<path d="M1460 1219 c0 -5 5 -7 10 -4 6 3 10 8 10 11 0 2 -4 4 -10 4 -5 0 -10
-5 -10 -11z"/>
<path d="M5085 3820 c-3 -6 1 -7 9 -4 18 7 21 14 7 14 -6 0 -13 -4 -16 -10z"/>
<path d="M5015 3800 c-3 -5 -1 -10 4 -10 6 0 11 5 11 10 0 6 -2 10 -4 10 -3 0
-8 -4 -11 -10z"/>
<path d="M5046 3798 c3 -4 9 -8 15 -8 5 0 9 4 9 8 0 5 -7 9 -15 9 -8 0 -12 -4
-9 -9z"/>
<path d="M4935 3781 c-3 -5 -2 -12 3 -15 5 -3 9 1 9 9 0 17 -3 19 -12 6z"/>
<path d="M4986 3782 c-3 -4 4 -9 15 -9 23 -2 25 3 4 10 -8 4 -16 3 -19 -1z"/>
<path d="M4855 3740 c-3 -5 -1 -10 4 -10 6 0 11 5 11 10 0 6 -2 10 -4 10 -3 0
-8 -4 -11 -10z"/>
<path d="M110 3725 c0 -5 5 -17 10 -25 5 -8 10 -10 10 -5 0 6 -5 17 -10 25 -5
8 -10 11 -10 5z"/>
<path d="M4886 3712 c-3 -5 1 -9 9 -9 8 0 12 4 9 9 -3 4 -7 8 -9 8 -2 0 -6 -4
-9 -8z"/>
<path d="M150 3675 c0 -8 4 -15 10 -15 5 0 7 7 4 15 -4 8 -8 15 -10 15 -2 0
-4 -7 -4 -15z"/>
<path d="M206 3682 c-3 -5 1 -9 9 -9 8 0 12 4 9 9 -3 4 -7 8 -9 8 -2 0 -6 -4
-9 -8z"/>
<path d="M256 3613 c-6 -14 -5 -15 5 -6 7 7 10 15 7 18 -3 3 -9 -2 -12 -12z"/>
<path d="M333 3624 c7 -13 -16 -37 -27 -29 -3 3 -1 -1 5 -8 9 -9 12 -9 16 1 3
6 8 10 13 7 11 -7 7 22 -5 32 -4 4 -5 3 -2 -3z"/>
<path d="M415 3581 c-3 -5 -2 -12 3 -15 5 -3 9 1 9 9 0 17 -3 19 -12 6z"/>
<path d="M348 3573 c7 -3 16 -2 19 1 4 3 -2 6 -13 5 -11 0 -14 -3 -6 -6z"/>
<path d="M5095 3451 c-3 -5 -2 -12 3 -15 5 -3 9 1 9 9 0 17 -3 19 -12 6z"/>
<path d="M4976 3421 c-3 -4 6 -6 19 -3 14 2 25 6 25 8 0 8 -39 4 -44 -5z"/>
<path d="M5034 3416 c1 -8 5 -18 8 -22 4 -3 5 1 4 10 -1 8 -5 18 -8 22 -4 3
-5 -1 -4 -10z"/>
<path d="M4993 3395 c0 -8 4 -12 9 -9 5 3 6 10 3 15 -9 13 -12 11 -12 -6z"/>
<path d="M31 3373 c-1 -17 16 -25 25 -12 4 7 3 9 -4 5 -5 -3 -13 0 -15 6 -4 9
-6 10 -6 1z"/>
<path d="M4868 3373 c7 -3 16 -2 19 1 4 3 -2 6 -13 5 -11 0 -14 -3 -6 -6z"/>
<path d="M171 3324 c0 -11 3 -14 6 -6 3 7 2 16 -1 19 -3 4 -6 -2 -5 -13z"/>
<path d="M193 3313 c-12 -13 -19 -23 -14 -23 10 0 46 39 40 43 -2 2 -14 -7
-26 -20z"/>
<path d="M4756 3327 c3 -10 9 -15 12 -12 3 3 0 11 -7 18 -10 9 -11 8 -5 -6z"/>
<path d="M4730 3325 c0 -5 5 -17 10 -25 5 -8 10 -10 10 -5 0 6 -5 17 -10 25
-5 8 -10 11 -10 5z"/>
<path d="M4839 3313 c-13 -17 -13 -17 6 -3 11 8 22 16 24 17 2 2 0 3 -6 3 -6
0 -17 -8 -24 -17z"/>
<path d="M96 3293 c-6 -14 -5 -15 5 -6 7 7 10 15 7 18 -3 3 -9 -2 -12 -12z"/>
<path d="M30 3280 c0 -5 5 -10 11 -10 5 0 7 5 4 10 -3 6 -8 10 -11 10 -2 0 -4
-4 -4 -10z"/>
<path d="M246 3282 c-3 -5 1 -9 9 -9 8 0 15 4 15 9 0 4 -4 8 -9 8 -6 0 -12 -4
-15 -8z"/>
<path d="M312 3271 c-11 -6 -9 -9 6 -13 15 -4 19 -2 15 8 -6 16 -4 16 -21 5z"/>
<path d="M4673 3266 c0 -15 22 -15 34 0 4 5 4 6 -1 2 -5 -4 -14 -3 -21 2 -8 7
-12 5 -12 -4z"/>
<path d="M215 3260 c3 -5 8 -10 11 -10 2 0 4 5 4 10 0 6 -5 10 -11 10 -5 0 -7
-4 -4 -10z"/>
<path d="M4575 3240 c-3 -5 -1 -10 4 -10 6 0 11 5 11 10 0 6 -2 10 -4 10 -3 0
-8 -4 -11 -10z"/>
<path d="M4630 3239 c0 -5 5 -7 10 -4 6 3 10 8 10 11 0 2 -4 4 -10 4 -5 0 -10
-5 -10 -11z"/>
<path d="M393 3225 c0 -8 4 -15 9 -15 4 0 8 4 8 9 0 6 -4 12 -8 15 -5 3 -9 -1
-9 -9z"/>
<path d="M295 3220 c3 -5 8 -10 11 -10 2 0 4 5 4 10 0 6 -5 10 -11 10 -5 0 -7
-4 -4 -10z"/>
<path d="M4554 3223 c4 -7 3 -13 -2 -13 -6 0 -13 -7 -16 -16 -5 -13 -4 -14 7
-6 8 7 16 9 20 6 3 -3 4 1 3 10 -1 8 -6 19 -11 23 -4 4 -5 2 -1 -4z"/>
<path d="M4595 3220 c-3 -5 -1 -10 4 -10 6 0 11 5 11 10 0 6 -2 10 -4 10 -3 0
-8 -4 -11 -10z"/>
<path d="M5087 3219 c7 -7 15 -10 18 -7 3 3 -2 9 -12 12 -14 6 -15 5 -6 -5z"/>
<path d="M426 3205 c4 -8 11 -15 16 -15 6 0 5 6 -2 15 -7 8 -14 15 -16 15 -2
0 -1 -7 2 -15z"/>
<path d="M5049 3203 c-13 -16 -12 -17 4 -4 16 13 21 21 13 21 -2 0 -10 -8 -17
-17z"/>
<path d="M4870 3199 c0 -5 5 -7 10 -4 6 3 10 8 10 11 0 2 -4 4 -10 4 -5 0 -10
-5 -10 -11z"/>
<path d="M5016 3193 c-6 -14 -5 -15 5 -6 7 7 10 15 7 18 -3 3 -9 -2 -12 -12z"/>
<path d="M50 3180 c0 -5 5 -10 11 -10 5 0 7 5 4 10 -3 6 -8 10 -11 10 -2 0 -4
-4 -4 -10z"/>
<path d="M375 3180 c3 -5 8 -10 11 -10 2 0 4 5 4 10 0 6 -5 10 -11 10 -5 0 -7
-4 -4 -10z"/>
<path d="M455 3180 c-3 -6 2 -13 12 -17 10 -3 22 -8 27 -11 5 -3 6 0 2 6 -4 7
-14 12 -22 12 -8 0 -12 5 -9 10 3 6 4 10 1 10 -3 0 -8 -5 -11 -10z"/>
<path d="M4910 3186 c0 -2 7 -7 16 -10 8 -3 12 -2 9 4 -6 10 -25 14 -25 6z"/>
<path d="M4445 3160 c-3 -6 1 -7 9 -4 18 7 21 14 7 14 -6 0 -13 -4 -16 -10z"/>
<path d="M4555 3160 c3 -5 8 -10 11 -10 2 0 4 5 4 10 0 6 -5 10 -11 10 -5 0
-7 -4 -4 -10z"/>
<path d="M4895 3159 c-4 -6 -4 -13 -1 -16 3 -4 6 -1 6 6 0 7 5 9 12 5 7 -4 8
-3 4 4 -9 15 -13 15 -21 1z"/>
<path d="M510 3156 c0 -2 8 -10 18 -17 15 -13 16 -12 3 4 -13 16 -21 21 -21
13z"/>
<path d="M4455 3139 c-4 -6 -5 -12 -2 -15 2 -3 7 2 10 11 7 17 1 20 -8 4z"/>
<path d="M4490 3139 c0 -5 5 -7 10 -4 6 3 10 8 10 11 0 2 -4 4 -10 4 -5 0 -10
-5 -10 -11z"/>
<path d="M4775 3140 c3 -5 8 -10 11 -10 2 0 4 5 4 10 0 6 -5 10 -11 10 -5 0
-7 -4 -4 -10z"/>
<path d="M86 3125 c-3 -8 -1 -15 4 -15 6 0 10 7 10 15 0 8 -2 15 -4 15 -2 0
-6 -7 -10 -15z"/>
<path d="M571 3124 c0 -11 3 -14 6 -6 3 7 2 16 -1 19 -3 4 -6 -2 -5 -13z"/>
<path d="M4833 3125 c0 -8 3 -13 5 -10 3 3 10 1 16 -5 8 -6 12 -2 13 13 0 12
-1 16 -4 9 -3 -9 -9 -10 -17 -3 -9 8 -13 6 -13 -4z"/>
<path d="M45 3120 c3 -5 8 -10 11 -10 2 0 4 5 4 10 0 6 -5 10 -11 10 -5 0 -7
-4 -4 -10z"/>
<path d="M190 3095 c5 -7 6 -16 2 -21 -4 -5 -3 -5 2 -1 15 12 15 34 0 34 -9 0
-11 -4 -4 -12z"/>
<path d="M630 3100 c0 -6 6 -13 14 -16 8 -3 12 -12 9 -20 -3 -8 -3 -14 0 -14
15 0 13 29 -4 43 -10 9 -19 12 -19 7z"/>
<path d="M4780 3080 c6 -11 13 -20 16 -20 2 0 0 9 -6 20 -6 11 -13 20 -16 20
-2 0 0 -9 6 -20z"/>
<path d="M221 3076 c-9 -11 -9 -16 1 -22 7 -4 10 -4 6 1 -4 4 -3 14 3 22 6 7
9 13 6 13 -2 0 -10 -6 -16 -14z"/>
<path d="M595 3080 c3 -5 8 -10 11 -10 2 0 4 5 4 10 0 6 -5 10 -11 10 -5 0 -7
-4 -4 -10z"/>
<path d="M4726 3078 c3 -5 10 -6 15 -3 13 9 11 12 -6 12 -8 0 -12 -4 -9 -9z"/>
<path d="M355 3069 c-4 -6 -5 -12 -2 -15 2 -3 7 2 10 11 7 17 1 20 -8 4z"/>
<path d="M4590 3065 c0 -7 30 -13 34 -7 3 4 -4 9 -15 9 -10 1 -19 0 -19 -2z"/>
<path d="M4655 3060 c-3 -5 -1 -10 4 -10 6 0 11 5 11 10 0 6 -2 10 -4 10 -3 0
-8 -4 -11 -10z"/>
<path d="M510 3041 c0 -6 4 -13 10 -16 6 -3 7 1 4 9 -7 18 -14 21 -14 7z"/>
<path d="M4634 3032 c3 -5 0 -13 -6 -15 -9 -4 -10 -6 -1 -6 17 -1 25 16 12 25
-7 4 -9 3 -5 -4z"/>
<path d="M310 3021 c0 -5 8 -15 18 -22 15 -12 16 -12 5 2 -7 9 -10 19 -6 22 3
4 1 7 -5 7 -7 0 -12 -4 -12 -9z"/>
<path d="M346 3022 c-3 -5 1 -9 9 -9 8 0 12 4 9 9 -3 4 -7 8 -9 8 -2 0 -6 -4
-9 -8z"/>
<path d="M410 3000 c0 -5 5 -10 11 -10 5 0 7 5 4 10 -3 6 -8 10 -11 10 -2 0
-4 -4 -4 -10z"/>
<path d="M4577 2999 c7 -7 15 -10 18 -7 3 3 -2 9 -12 12 -14 6 -15 5 -6 -5z"/>
<path d="M358 2983 c7 -3 16 -2 19 1 4 3 -2 6 -13 5 -11 0 -14 -3 -6 -6z"/>
<path d="M395 2960 c3 -5 8 -10 11 -10 2 0 4 5 4 10 0 6 -5 10 -11 10 -5 0 -7
-4 -4 -10z"/>
<path d="M4531 2949 c8 -16 39 -17 39 -2 0 3 -7 2 -16 -1 -11 -4 -15 -2 -11 7
3 8 -1 14 -8 14 -10 0 -11 -5 -4 -18z"/>
<path d="M428 2943 c6 -2 18 -2 25 0 6 3 1 5 -13 5 -14 0 -19 -2 -12 -5z"/>
<path d="M474 2939 c-3 -6 -2 -15 4 -21 6 -6 12 -6 17 3 6 8 4 10 -5 4 -10 -6
-12 -4 -7 8 7 19 2 23 -9 6z"/>
<path d="M516 2942 c-3 -4 4 -9 15 -9 23 -2 25 3 4 10 -8 4 -16 3 -19 -1z"/>
<path d="M575 2901 c-3 -5 -2 -12 3 -15 5 -3 9 1 9 9 0 17 -3 19 -12 6z"/>
<path d="M610 2879 c0 -5 5 -7 10 -4 6 3 10 8 10 11 0 2 -4 4 -10 4 -5 0 -10
-5 -10 -11z"/>
<path d="M621 2843 c16 -27 26 -29 26 -8 0 8 -3 13 -5 10 -3 -3 -12 1 -20 8
-13 11 -14 9 -1 -10z"/>
<path d="M5066 2812 c-2 -4 0 -14 6 -22 8 -12 9 -12 5 2 -3 9 -1 19 6 22 9 3
9 5 0 5 -6 1 -14 -3 -17 -7z"/>
<path d="M5075 2754 c-18 -16 -22 -22 -9 -15 18 9 53 42 43 41 -2 -1 -17 -12
-34 -26z"/>
<path d="M5027 2723 c-3 -5 4 -15 16 -23 21 -12 21 -12 7 6 -8 10 -15 20 -16
22 -1 2 -4 -1 -7 -5z"/>
<path d="M5073 2715 c0 -8 4 -12 9 -9 5 3 6 10 3 15 -9 13 -12 11 -12 -6z"/>
<path d="M5027 2666 c-4 -10 -1 -13 8 -9 8 3 12 9 9 14 -7 12 -11 11 -17 -5z"/>
<path d="M4995 2600 c-3 -5 -1 -10 4 -10 6 0 11 5 11 10 0 6 -2 10 -4 10 -3 0
-8 -4 -11 -10z"/>
<path d="M4950 2540 c-13 -8 -12 -10 3 -10 9 0 17 5 17 10 0 12 -1 12 -20 0z"/>
<path d="M5016 2538 c3 -5 10 -6 15 -3 13 9 11 12 -6 12 -8 0 -12 -4 -9 -9z"/>
<path d="M4919 2525 c-1 -3 -2 -8 -3 -12 -1 -5 -4 -13 -8 -19 -4 -6 -4 -14 -1
-18 12 -12 12 -40 0 -56 -10 -13 -10 -13 5 -1 17 13 19 35 5 58 -4 7 0 16 10
22 11 6 13 11 5 11 -7 0 -10 5 -7 10 3 6 4 10 1 10 -3 0 -7 -2 -7 -5z"/>
<path d="M4935 2480 c3 -5 8 -10 11 -10 2 0 4 5 4 10 0 6 -5 10 -11 10 -5 0
-7 -4 -4 -10z"/>
<path d="M5095 2481 c-3 -5 -2 -12 3 -15 5 -3 9 1 9 9 0 17 -3 19 -12 6z"/>
<path d="M26 2463 c-6 -14 -5 -15 5 -6 7 7 10 15 7 18 -3 3 -9 -2 -12 -12z"/>
<path d="M5053 2465 c0 -8 4 -12 9 -9 5 3 6 10 3 15 -9 13 -12 11 -12 -6z"/>
<path d="M4970 2465 c0 -5 5 -17 10 -25 5 -8 10 -10 10 -5 0 6 -5 17 -10 25
-5 8 -10 11 -10 5z"/>
<path d="M5101 2434 c0 -11 3 -14 6 -6 3 7 2 16 -1 19 -3 4 -6 -2 -5 -13z"/>
<path d="M5055 2420 c-3 -5 -1 -10 4 -10 6 0 11 5 11 10 0 6 -2 10 -4 10 -3 0
-8 -4 -11 -10z"/>
<path d="M59 2418 c-8 -27 -5 -36 9 -30 10 4 12 7 4 10 -7 2 -10 8 -6 13 3 5
3 9 0 9 -3 0 -6 -1 -7 -2z"/>
<path d="M16 2398 c3 -5 10 -6 15 -3 13 9 11 12 -6 12 -8 0 -12 -4 -9 -9z"/>
<path d="M5075 2391 c-3 -5 -2 -12 3 -15 5 -3 9 1 9 9 0 17 -3 19 -12 6z"/>
<path d="M4845 2380 c-3 -5 -1 -18 5 -27 9 -15 10 -14 4 6 -4 17 -3 21 6 16 9
-5 11 -4 6 3 -9 15 -13 15 -21 2z"/>
<path d="M64 2362 c4 -3 14 -7 22 -8 9 -1 13 0 10 4 -4 3 -14 7 -22 8 -9 1
-13 0 -10 -4z"/>
<path d="M4916 2362 c-3 -5 1 -9 9 -9 8 0 12 4 9 9 -3 4 -7 8 -9 8 -2 0 -6 -4
-9 -8z"/>
<path d="M4831 2317 c-1 -11 -6 -15 -13 -11 -7 5 -8 3 -3 -5 10 -16 29 2 22
21 -4 8 -6 7 -6 -5z"/>
<path d="M4906 2318 c3 -5 10 -6 15 -3 13 9 11 12 -6 12 -8 0 -12 -4 -9 -9z"/>
<path d="M110 2286 c0 -2 7 -6 15 -10 8 -3 15 -1 15 4 0 6 -7 10 -15 10 -8 0
-15 -2 -15 -4z"/>
<path d="M4846 2258 c3 -5 10 -6 15 -3 13 9 11 12 -6 12 -8 0 -12 -4 -9 -9z"/>
<path d="M4780 2240 c-9 -6 -10 -10 -3 -10 6 0 15 5 18 10 8 12 4 12 -15 0z"/>
<path d="M4986 2238 c3 -4 9 -8 15 -8 5 0 9 4 9 8 0 5 -7 9 -15 9 -8 0 -12 -4
-9 -9z"/>
<path d="M180 2231 c0 -7 -5 -9 -12 -5 -7 5 -8 3 -3 -5 5 -9 10 -10 18 -2 6 6
8 14 4 18 -4 3 -7 1 -7 -6z"/>
<path d="M113 2215 c0 -8 4 -12 9 -9 5 3 6 10 3 15 -9 13 -12 11 -12 -6z"/>
<path d="M4955 2221 c-3 -5 -2 -12 3 -15 5 -3 9 1 9 9 0 17 -3 19 -12 6z"/>
<path d="M4981 2204 c0 -11 3 -14 6 -6 3 7 2 16 -1 19 -3 4 -6 -2 -5 -13z"/>
<path d="M205 2180 c-16 -7 -17 -9 -3 -9 9 -1 20 4 23 9 7 11 7 11 -20 0z"/>
<path d="M4814 2176 c1 -8 5 -18 8 -22 4 -3 5 1 4 10 -1 8 -5 18 -8 22 -4 3
-5 -1 -4 -10z"/>
<path d="M4776 2167 c3 -10 9 -15 12 -12 3 3 0 11 -7 18 -10 9 -11 8 -5 -6z"/>
<path d="M4914 2133 c2 -10 -1 -24 -7 -31 -7 -9 -6 -11 6 -6 16 6 18 36 5 50
-4 3 -5 -2 -4 -13z"/>
<path d="M4855 2100 c3 -5 8 -10 11 -10 2 0 4 5 4 10 0 6 -5 10 -11 10 -5 0
-7 -4 -4 -10z"/>
<path d="M5076 1593 c-6 -14 -5 -15 5 -6 7 7 10 15 7 18 -3 3 -9 -2 -12 -12z"/>
<path d="M4970 1519 c0 -5 5 -7 10 -4 6 3 10 8 10 11 0 2 -4 4 -10 4 -5 0 -10
-5 -10 -11z"/>
<path d="M27 1459 c7 -7 15 -10 18 -7 3 3 -2 9 -12 12 -14 6 -15 5 -6 -5z"/>
<path d="M4890 1459 c0 -5 5 -7 10 -4 6 3 10 8 10 11 0 2 -4 4 -10 4 -5 0 -10
-5 -10 -11z"/>
<path d="M90 1451 c0 -6 4 -13 10 -16 6 -3 7 1 4 9 -7 18 -14 21 -14 7z"/>
<path d="M70 1441 c0 -6 4 -13 10 -16 6 -3 7 1 4 9 -7 18 -14 21 -14 7z"/>
<path d="M4776 1407 c3 -10 9 -15 12 -12 3 3 0 11 -7 18 -10 9 -11 8 -5 -6z"/>
<path d="M4655 1400 c-3 -6 1 -7 9 -4 18 7 21 14 7 14 -6 0 -13 -4 -16 -10z"/>
<path d="M4719 1393 c-12 -16 -12 -17 2 -6 9 7 20 9 24 5 5 -4 5 -1 1 6 -9 16
-11 15 -27 -5z"/>
<path d="M175 1380 c3 -5 8 -10 11 -10 2 0 4 5 4 10 0 6 -5 10 -11 10 -5 0 -7
-4 -4 -10z"/>
<path d="M326 1362 c-3 -5 1 -9 9 -9 8 0 12 4 9 9 -3 4 -7 8 -9 8 -2 0 -6 -4
-9 -8z"/>
<path d="M295 1341 c-3 -5 -2 -12 3 -15 5 -3 9 1 9 9 0 17 -3 19 -12 6z"/>
<path d="M3917 811 c3 -12 12 -21 19 -21 8 0 14 -9 14 -20 0 -11 7 -20 16 -20
8 0 12 -4 9 -10 -3 -5 -1 -10 4 -10 6 0 10 -3 10 -7 -1 -5 -1 -15 0 -23 1 -13
2 -13 11 0 5 8 10 10 10 4 0 -5 -6 -16 -12 -24 -7 -8 -9 -11 -4 -7 11 9 48
-22 40 -34 -3 -5 2 -9 12 -9 14 0 14 -3 4 -15 -7 -9 -10 -18 -6 -22 3 -3 6 -1
6 5 0 7 5 12 10 12 5 0 9 -3 9 -7 -1 -5 -1 -15 0 -23 1 -13 2 -13 12 0 8 12 9
10 4 -7 -4 -16 -2 -23 8 -23 8 0 21 -8 28 -17 8 -10 9 -14 2 -10 -6 4 -14 3
-18 -3 -3 -5 3 -10 14 -10 12 0 22 -4 22 -10 1 -5 2 -15 3 -21 0 -6 10 -18 21
-26 l20 -16 -20 7 c-18 5 -18 5 -3 -7 15 -12 15 -14 0 -25 -16 -11 -16 -11 0
-6 10 3 25 -1 33 -10 9 -9 12 -16 7 -16 -14 0 -21 -25 -12 -40 7 -11 12 -11
23 -2 12 10 17 7 27 -18 7 -17 17 -27 24 -23 6 3 8 2 3 -2 -4 -5 0 -17 10 -27
9 -10 12 -18 8 -18 -5 0 2 -12 16 -27 13 -14 18 -23 10 -18 -9 5 -12 3 -9 -6
3 -8 11 -13 17 -11 6 1 10 -1 10 -5 -3 -20 2 -34 11 -28 6 3 7 -1 4 -9 -4 -10
1 -18 11 -22 13 -6 14 -9 3 -16 -10 -7 -10 -11 0 -15 6 -2 12 -13 12 -24 0
-10 4 -19 9 -19 5 0 11 -10 13 -22 3 -22 6 -23 133 -24 72 -1 124 0 117 3 -7
3 -17 14 -23 25 -9 16 -8 19 2 13 7 -5 10 -4 5 3 -3 6 1 18 10 26 8 9 10 16 4
16 -6 0 -13 -6 -16 -14 -3 -8 -12 -12 -19 -10 -8 3 -11 12 -8 20 3 8 10 11 16
7 6 -3 7 -1 3 6 -6 9 -11 9 -21 1 -9 -8 -14 -6 -19 5 -3 9 -12 13 -18 10 -7
-4 -2 3 12 15 15 13 19 21 10 20 -28 -4 -40 0 -40 14 0 7 -7 19 -15 26 -12 10
-13 16 -3 28 7 9 8 13 3 10 -6 -4 -19 1 -30 9 -12 10 -14 14 -5 10 11 -3 16 2
18 19 1 13 -3 24 -8 24 -5 0 -7 -6 -4 -13 3 -8 -2 -14 -10 -14 -8 0 -13 8 -11
18 3 13 -1 16 -13 12 -15 -6 -16 -5 -2 12 9 11 10 16 3 11 -8 -4 -13 -1 -13 9
0 9 -4 14 -9 11 -5 -4 -4 5 2 18 7 13 16 22 21 19 5 -4 6 -1 2 6 -9 14 -26 5
-26 -15 0 -8 -5 -14 -11 -14 -6 0 -8 7 -5 16 3 8 2 13 -2 11 -4 -3 -13 1 -20
9 -7 8 -9 14 -5 14 4 0 1 5 -7 11 -12 8 -9 9 10 5 14 -3 19 -3 12 0 -10 5 -10
10 3 24 11 12 13 20 5 25 -6 4 -9 1 -8 -7 2 -7 -3 -12 -10 -10 -8 1 -11 -2 -7
-8 3 -5 -1 -10 -10 -10 -11 0 -15 5 -12 14 3 7 1 18 -5 24 -8 8 -8 16 2 27 19
23 4 18 -21 -7 -12 -13 -19 -18 -15 -11 3 6 -2 19 -11 29 -16 16 -16 16 5 10
14 -5 22 -3 22 4 0 6 -3 9 -7 7 -5 -3 -17 -1 -28 4 -17 6 -17 8 -2 8 20 1 23
17 5 24 -10 4 -10 6 0 6 8 1 10 6 5 14 -8 13 -10 19 -12 45 0 9 -14 23 -31 30
-31 14 -40 37 -17 45 6 3 2 4 -10 4 -12 -1 -19 -5 -16 -10 3 -5 -4 -4 -16 2
-11 7 -21 16 -21 21 0 6 -7 10 -15 10 -8 0 -15 5 -15 10 0 6 5 10 12 10 6 0 8
3 5 6 -4 4 -13 1 -22 -6 -12 -10 -15 -9 -16 6 0 11 -3 14 -6 6 -3 -9 -9 -7
-21 6 -10 10 -13 12 -8 5 6 -10 4 -12 -8 -7 -9 3 -16 10 -16 15 0 5 -11 9 -25
9 -14 0 -25 4 -25 9 0 10 -19 9 -37 -2 -7 -5 -13 -4 -13 0 0 5 6 15 13 23 10
12 9 12 -3 2 -18 -13 -59 -13 -77 0 -8 7 -10 3 -6 -11z m448 -351 c3 -5 1 -10
-4 -10 -6 0 -11 5 -11 10 0 6 2 10 4 10 3 0 8 -4 11 -10z m-151 -105 c-4 -8
-10 -12 -15 -9 -11 6 -2 24 11 24 5 0 7 -7 4 -15z m267 -168 c-10 -9 -11 -8
-5 6 3 10 9 15 12 12 3 -3 0 -11 -7 -18z"/>
<path d="M3853 735 c0 -8 4 -12 9 -9 5 3 6 10 3 15 -9 13 -12 11 -12 -6z"/>
<path d="M4260 740 c-12 -7 -10 -9 7 -7 12 0 19 5 17 9 -6 10 -6 10 -24 -2z"/>
<path d="M3950 720 c0 -5 5 -10 11 -10 5 0 7 5 4 10 -3 6 -8 10 -11 10 -2 0
-4 -4 -4 -10z"/>
<path d="M3870 676 c14 -18 13 -19 -5 -12 -16 6 -18 5 -7 -5 8 -9 15 -10 22
-3 8 8 5 15 -7 25 -17 13 -17 13 -3 -5z"/>
<path d="M4285 679 c-4 -6 -5 -12 -2 -15 2 -3 7 2 10 11 7 17 1 20 -8 4z"/>
<path d="M4340 680 c-9 -6 -10 -10 -3 -10 6 0 15 5 18 10 8 12 4 12 -15 0z"/>
<path d="M3980 656 c0 -2 11 -6 25 -8 13 -3 22 -1 19 3 -5 9 -44 13 -44 5z"/>
<path d="M3875 619 c-4 -6 -5 -12 -2 -15 2 -3 7 2 10 11 7 17 1 20 -8 4z"/>
<path d="M3908 623 c6 -2 18 -2 25 0 6 3 1 5 -13 5 -14 0 -19 -2 -12 -5z"/>
<path d="M3995 621 c-4 -7 0 -8 11 -4 10 4 15 2 11 -3 -3 -6 -1 -16 4 -24 7
-11 8 -9 6 9 -4 27 -21 38 -32 22z"/>
<path d="M3890 595 c0 -8 2 -15 4 -15 2 0 6 7 10 15 3 8 1 15 -4 15 -6 0 -10
-7 -10 -15z"/>
<path d="M3976 591 c-4 -5 -1 -13 5 -17 8 -4 9 -3 5 4 -4 7 -3 12 3 12 5 0 12
-5 14 -10 3 -6 4 -5 3 2 -3 16 -23 22 -30 9z"/>
<path d="M4320 596 c0 -2 7 -7 16 -10 8 -3 12 -2 9 4 -6 10 -25 14 -25 6z"/>
<path d="M3911 585 c0 -5 6 -18 13 -28 13 -17 14 -16 19 3 3 11 0 23 -5 27 -7
3 -8 1 -4 -5 4 -7 3 -12 -3 -12 -5 0 -12 6 -14 13 -3 6 -6 8 -6 2z"/>
<path d="M4056 561 c3 -13 2 -21 -3 -18 -5 3 -15 1 -23 -4 -12 -7 -10 -8 7 -6
31 4 37 13 23 34 -10 16 -10 15 -4 -6z"/>
<path d="M3967 559 c7 -7 15 -10 18 -7 3 3 -2 9 -12 12 -14 6 -15 5 -6 -5z"/>
<path d="M4020 560 c-9 -6 -10 -10 -3 -10 6 0 15 5 18 10 8 12 4 12 -15 0z"/>
<path d="M4357 555 c-4 -8 -3 -16 1 -19 4 -3 9 4 9 15 2 23 -3 25 -10 4z"/>
<path d="M3988 533 c7 -3 16 -2 19 1 4 3 -2 6 -13 5 -11 0 -14 -3 -6 -6z"/>
<path d="M4085 532 c-5 -4 -11 -16 -13 -27 l-2 -20 11 20 c7 11 17 23 23 27 7
5 7 8 1 8 -5 0 -14 -4 -20 -8z"/>
<path d="M3987 489 c4 -13 8 -18 11 -10 2 7 -1 18 -6 23 -8 8 -9 4 -5 -13z"/>
<path d="M4014 499 c-4 -7 -3 -9 4 -5 5 3 13 0 15 -6 4 -9 6 -10 6 -1 1 17
-16 25 -25 12z"/>
<path d="M4393 503 c4 -3 1 -13 -6 -22 -11 -14 -10 -14 5 -2 16 12 16 31 1 31
-4 0 -3 -3 0 -7z"/>
<path d="M4119 492 c9 -7 10 -11 2 -15 -7 -4 -8 -5 0 -4 15 3 13 21 -3 25 -10
3 -10 2 1 -6z"/>
<path d="M4011 473 c-1 -17 16 -25 25 -12 4 7 3 9 -4 5 -5 -3 -13 0 -15 6 -4
9 -6 10 -6 1z"/>
<path d="M4070 472 c0 -7 -5 -10 -12 -6 -6 4 -8 3 -4 -4 3 -6 16 -9 27 -7 15
3 19 0 15 -10 -3 -8 -1 -15 5 -15 6 0 9 7 7 16 -2 8 -7 14 -12 14 -5 -1 -13 4
-17 12 -7 10 -9 10 -9 0z"/>
<path d="M4125 451 c-3 -5 0 -13 7 -17 9 -6 5 -10 -12 -15 -23 -6 -23 -7 -3
-8 25 -1 39 14 22 25 -8 4 -7 9 2 15 10 6 10 9 2 9 -6 0 -14 -4 -18 -9z"/>
<path d="M4030 440 c-13 -8 -12 -10 3 -10 9 0 17 5 17 10 0 12 -1 12 -20 0z"/>
<path d="M4055 420 c-3 -6 1 -7 9 -4 18 7 21 14 7 14 -6 0 -13 -4 -16 -10z"/>
<path d="M4055 390 c6 -10 4 -12 -9 -7 -9 4 -15 3 -11 -2 3 -5 0 -11 -7 -13
-7 -3 -4 -7 7 -12 11 -4 16 -4 12 0 -4 4 1 12 10 19 13 9 13 14 3 20 -9 6 -11
4 -5 -5z"/>
<path d="M4135 381 c-3 -5 0 -13 6 -17 8 -5 9 -3 4 6 -6 10 -3 12 13 8 12 -4
22 -2 22 3 0 12 -37 12 -45 0z"/>
<path d="M4100 360 c8 -5 20 -10 25 -10 6 0 3 5 -5 10 -8 5 -19 10 -25 10 -5
0 -3 -5 5 -10z"/>
<path d="M4068 343 c7 -3 16 -2 19 1 4 3 -2 6 -13 5 -11 0 -14 -3 -6 -6z"/>
<path d="M4150 346 c0 -2 7 -7 16 -10 8 -3 12 -2 9 4 -6 10 -25 14 -25 6z"/>
<path d="M4465 340 c-3 -6 1 -7 9 -4 18 7 21 14 7 14 -6 0 -13 -4 -16 -10z"/>
<path d="M4103 318 c1 -15 6 -23 11 -18 4 4 4 16 -2 26 -9 16 -10 14 -9 -8z"/>
<path d="M4137 329 c7 -7 15 -10 18 -7 3 3 -2 9 -12 12 -14 6 -15 5 -6 -5z"/>
<path d="M4081 314 c0 -11 3 -14 6 -6 3 7 2 16 -1 19 -3 4 -6 -2 -5 -13z"/>
<path d="M4220 321 c0 -7 -5 -9 -12 -5 -7 5 -8 3 -3 -5 5 -9 10 -10 18 -2 6 6
8 14 4 18 -4 3 -7 1 -7 -6z"/>
<path d="M4150 300 c0 -5 5 -10 10 -10 6 0 10 5 10 10 0 6 -4 10 -10 10 -5 0
-10 -4 -10 -10z"/>
<path d="M4535 301 c-3 -5 -2 -12 3 -15 5 -3 9 1 9 9 0 17 -3 19 -12 6z"/>
<path d="M4203 284 c-18 -8 -33 -16 -33 -19 0 -7 60 16 66 26 6 11 7 11 -33
-7z"/>
<path d="M4125 280 c-3 -5 -1 -10 4 -10 6 0 11 5 11 10 0 6 -2 10 -4 10 -3 0
-8 -4 -11 -10z"/>
<path d="M4230 270 c-13 -8 -12 -10 3 -10 9 0 17 5 17 10 0 12 -1 12 -20 0z"/>
<path d="M4262 265 c4 -4 0 -14 -10 -22 -16 -12 -16 -13 2 -7 16 6 17 4 7 -14
-6 -11 -7 -23 -3 -26 5 -3 9 0 10 7 0 7 3 22 6 34 2 13 -1 26 -7 29 -7 4 -9 4
-5 -1z"/>
<path d="M4204 239 c-3 -6 -1 -16 5 -22 9 -9 10 -7 5 7 -5 13 -4 17 4 12 7 -4
12 -2 12 3 0 14 -17 14 -26 0z"/>
<path d="M4553 225 c0 -8 4 -12 9 -9 5 3 6 10 3 15 -9 13 -12 11 -12 -6z"/>
<path d="M4150 206 c0 -2 7 -7 16 -10 8 -3 12 -2 9 4 -6 10 -25 14 -25 6z"/>
<path d="M4220 200 c-9 -6 -10 -10 -3 -10 6 0 15 5 18 10 8 12 4 12 -15 0z"/>
<path d="M4520 206 c0 -2 7 -9 15 -16 13 -11 14 -10 9 4 -5 14 -24 23 -24 12z"/>
<path d="M4144 179 c-3 -6 -2 -15 4 -21 12 -12 32 -2 31 15 0 9 -2 9 -6 0 -2
-7 -9 -13 -15 -13 -6 0 -8 7 -4 15 6 17 0 20 -10 4z"/>
<path d="M4261 164 c0 -11 3 -14 6 -6 3 7 2 16 -1 19 -3 4 -6 -2 -5 -13z"/>
<path d="M4295 159 c-11 -16 -1 -19 13 -3 7 8 8 14 3 14 -5 0 -13 -5 -16 -11z"/>
<path d="M4190 145 c0 -5 5 -17 10 -25 5 -8 10 -10 10 -5 0 6 -5 17 -10 25 -5
8 -10 11 -10 5z"/>
<path d="M4310 141 c0 -5 5 -13 10 -16 6 -3 10 -2 10 4 0 5 -4 13 -10 16 -5 3
-10 2 -10 -4z"/>
<path d="M4610 140 c0 -5 5 -10 11 -10 5 0 7 5 4 10 -3 6 -8 10 -11 10 -2 0
-4 -4 -4 -10z"/>
<path d="M4166 123 c-6 -14 -5 -15 5 -6 7 7 10 15 7 18 -3 3 -9 -2 -12 -12z"/>
<path d="M4277 112 c-15 -16 -15 -18 2 -18 12 0 17 5 13 15 -4 10 -1 12 8 6 9
-5 11 -4 6 3 -9 15 -10 15 -29 -6z"/>
<path d="M4576 118 c3 -5 10 -6 15 -3 13 9 11 12 -6 12 -8 0 -12 -4 -9 -9z"/>
<path d="M4226 98 c3 -5 10 -6 15 -3 13 9 11 12 -6 12 -8 0 -12 -4 -9 -9z"/>
<path d="M4317 89 c7 -7 15 -10 18 -7 3 3 -2 9 -12 12 -14 6 -15 5 -6 -5z"/>
<path d="M4240 55 c-11 -13 -11 -18 0 -28 10 -9 11 -9 6 1 -4 7 -2 19 4 27 7
8 10 15 7 15 -2 0 -10 -7 -17 -15z"/>
<path d="M1191 36 c-15 -17 -1 -28 19 -15 11 6 12 9 2 9 -7 0 -10 5 -7 10 9
15 -1 12 -14 -4z"/>
<path d="M1230 39 c0 -5 5 -7 10 -4 6 3 10 8 10 11 0 2 -4 4 -10 4 -5 0 -10
-5 -10 -11z"/>
<path d="M4319 33 c-12 -16 -12 -17 2 -6 9 7 19 10 22 6 4 -3 7 -1 7 5 0 17
-16 15 -31 -5z"/>
<path d="M4659 33 c-13 -16 -12 -17 4 -4 16 13 21 21 13 21 -2 0 -10 -8 -17
-17z"/>
<path d="M4690 21 c0 -6 4 -13 10 -16 6 -3 7 1 4 9 -7 18 -14 21 -14 7z"/>
<path d="M4357 9 c7 -7 15 -10 18 -7 3 3 -2 9 -12 12 -14 6 -15 5 -6 -5z"/>
</g>
</svg>
